<svg width="24" height="24" viewBox="0 0 24 24" fill="none" xmlns="http://www.w3.org/2000/svg">
<path d="M12.05 19L14.9 16.175L12.05 13.35L11 14.4L12.075 15.475C11.6083 15.4917 11.1541 15.4166 10.7125 15.25C10.2708 15.0834 9.875 14.825 9.525 14.475C9.19165 14.1417 8.9375 13.7583 8.7625 13.325C8.5875 12.8916 8.5 12.4583 8.5 12.025C8.5 11.7416 8.5375 11.4584 8.6125 11.175C8.6875 10.8917 8.79165 10.6167 8.925 10.35L7.825 9.25C7.54165 9.66665 7.33335 10.1083 7.2 10.575C7.06665 11.0416 7 11.5166 7 12C7 12.6334 7.125 13.2584 7.375 13.875C7.625 14.4916 7.99165 15.0416 8.475 15.525C8.95835 16.0083 9.5 16.3708 10.1 16.6125C10.7 16.8541 11.3166 16.9833 11.95 17L11 17.95L12.05 19ZM16.175 14.75C16.4583 14.3334 16.6666 13.8917 16.8 13.425C16.9333 12.9584 17 12.4834 17 12C17 11.3666 16.8792 10.7375 16.6375 10.1125C16.3959 9.4875 16.0334 8.93335 15.55 8.45C15.0667 7.96665 14.5209 7.60835 13.9125 7.375C13.3042 7.14165 12.6834 7.025 12.05 7.025L13 6.05L11.95 5L9.1 7.825L11.95 10.65L13 9.6L11.9 8.5C12.35 8.5 12.8083 8.5875 13.275 8.7625C13.7416 8.9375 14.1417 9.19165 14.475 9.525C14.8084 9.85835 15.0625 10.2417 15.2375 10.675C15.4125 11.1084 15.5 11.5417 15.5 11.975C15.5 12.2584 15.4625 12.5416 15.3875 12.825C15.3125 13.1083 15.2083 13.3833 15.075 13.65L16.175 14.75ZM12 22C10.6334 22 9.34165 21.7375 8.125 21.2125C6.90835 20.6875 5.84585 19.9708 4.9375 19.0625C4.02917 18.1542 3.3125 17.0917 2.7875 15.875C2.2625 14.6583 2 13.3666 2 12C2 10.6166 2.2625 9.31665 2.7875 8.1C3.3125 6.88335 4.02917 5.825 4.9375 4.925C5.84585 4.025 6.90835 3.3125 8.125 2.7875C9.34165 2.2625 10.6334 2 12 2C13.3834 2 14.6833 2.2625 15.9 2.7875C17.1166 3.3125 18.175 4.025 19.075 4.925C19.975 5.825 20.6875 6.88335 21.2125 8.1C21.7375 9.31665 22 10.6166 22 12C22 13.3666 21.7375 14.6583 21.2125 15.875C20.6875 17.0917 19.975 18.1542 19.075 19.0625C18.175 19.9708 17.1166 20.6875 15.9 21.2125C14.6833 21.7375 13.3834 22 12 22Z" fill="#00A988"/>
</svg>
