<svg width="16" height="16" viewBox="0 0 16 16" fill="none" xmlns="http://www.w3.org/2000/svg">
<g clip-path="url(#clip0_4132_7113)">
<path fill-rule="evenodd" clip-rule="evenodd" d="M7.98514 1.71489C7.50739 1.70627 7.03262 1.79194 6.58802 1.967C6.14341 2.14207 5.73769 2.40309 5.39407 2.73513C5.05046 3.06718 4.7757 3.46372 4.58551 3.90207C4.39533 4.34043 4.29345 4.81198 4.28571 5.28975V10.2863C4.28571 10.5894 4.16531 10.8801 3.95098 11.0944C3.73665 11.3088 3.44596 11.4292 3.14286 11.4292H1.71429C1.25963 11.4292 0.823594 11.2486 0.502103 10.9271C0.180612 10.6056 0 10.1696 0 9.71489L0 7.42918C0 6.97452 0.180612 6.53849 0.502103 6.217C0.823594 5.8955 1.25963 5.71489 1.71429 5.71489H2.57143V5.26918C2.58186 4.56677 2.73055 3.8733 3.00902 3.22836C3.28749 2.58343 3.69028 1.99967 4.19438 1.51042C4.69849 1.02117 5.29404 0.636023 5.94701 0.376967C6.59998 0.11791 7.2976 -0.00997744 8 0.000607216C8.70241 -0.00997744 9.40002 0.11791 10.053 0.376967C10.706 0.636023 11.3015 1.02117 11.8056 1.51042C12.3097 1.99967 12.7125 2.58343 12.991 3.22836C13.2695 3.8733 13.4181 4.56677 13.4286 5.26918V5.28061V5.71489H14.2857C14.7404 5.71489 15.1764 5.8955 15.4979 6.217C15.8194 6.53849 16 6.97452 16 7.42918V9.71489C16 10.1696 15.8194 10.6056 15.4979 10.9271C15.1764 11.2486 14.7404 11.4292 14.2857 11.4292H13.4286V12.0006C13.4287 12.7729 13.1445 13.5182 12.6302 14.0943C12.1158 14.6704 11.4074 15.037 10.64 15.124C10.491 15.3901 10.2737 15.6116 10.0105 15.7657C9.74733 15.9198 9.44782 16.0009 9.14286 16.0006H7.42857C6.97391 16.0006 6.53788 15.82 6.21639 15.4985C5.8949 15.177 5.71429 14.741 5.71429 14.2863C5.71429 13.8317 5.8949 13.3956 6.21639 13.0741C6.53788 12.7526 6.97391 12.572 7.42857 12.572H9.14286C9.76229 12.572 10.3051 12.9 10.6057 13.3926C10.9207 13.3202 11.2019 13.1431 11.4032 12.8903C11.6046 12.6375 11.7142 12.3238 11.7143 12.0006V5.28861C11.7064 4.80838 11.6035 4.33447 11.4114 3.89427C11.2193 3.45407 10.9418 3.05631 10.595 2.724C10.2483 2.39168 9.83908 2.1314 9.39111 1.95819C8.94313 1.78499 8.46527 1.70229 7.98514 1.71489Z" fill="#00A988"/>
</g>
<defs>
<clipPath id="clip0_4132_7113">
<rect width="16" height="16" fill="white"/>
</clipPath>
</defs>
</svg>
