<svg width="24" height="24" viewBox="0 0 24 24" fill="none" xmlns="http://www.w3.org/2000/svg">
<path d="M9.03429 5.96305L6.49114 8.49856C6.02369 8.9646 5.59488 9.3921 5.25624 9.77856C5.03877 10.0267 4.82145 10.2984 4.63737 10.5985L4.61259 10.5738C4.56555 10.5269 4.54201 10.5034 4.51839 10.4805C4.07636 10.0516 3.55641 9.71062 2.98636 9.47575C2.9559 9.4632 2.92498 9.45095 2.86314 9.42645L2.48449 9.27641C1.97153 9.07315 1.83482 8.41279 2.22514 8.02365C3.34535 6.90684 4.69032 5.56594 5.33941 5.29662C5.91185 5.05911 6.53023 4.98008 7.12664 5.06822C7.67311 5.14898 8.19006 5.42968 9.03429 5.96305Z" fill="#00A988"/>
<path d="M13.375 19.3136C13.5799 19.5216 13.716 19.6685 13.8391 19.8255C14.0014 20.0326 14.1466 20.2526 14.2731 20.4833C14.4155 20.743 14.5261 21.0204 14.7473 21.5752C14.9273 22.0269 15.5255 22.1463 15.8729 21.7999L15.9569 21.7161C17.0771 20.5992 18.422 19.2583 18.6921 18.6112C18.9304 18.0404 19.0096 17.4239 18.9212 16.8293C18.8402 16.2845 18.5588 15.7692 18.0239 14.9277L15.4723 17.4717C14.9942 17.9483 14.5559 18.3854 14.1595 18.7277C13.9219 18.9329 13.662 19.138 13.375 19.3136Z" fill="#00A988"/>
<path fill-rule="evenodd" clip-rule="evenodd" d="M14.4457 16.3769L20.2925 10.5476C21.1346 9.70811 21.5556 9.28836 21.7773 8.75458C21.9991 8.22081 21.9991 7.62719 21.9991 6.43996V5.87277C21.9991 4.04713 21.9991 3.13431 21.4302 2.56715C20.8614 2 19.9458 2 18.1147 2H17.5458C16.355 2 15.7596 2 15.2242 2.2211C14.6888 2.4422 14.2678 2.86195 13.4258 3.70146L7.57893 9.53078C6.59501 10.5117 5.98493 11.12 5.74868 11.7075C5.67404 11.8931 5.63672 12.0767 5.63672 12.2692C5.63672 13.0713 6.28412 13.7168 7.57893 15.0077L7.75295 15.1812L9.79147 13.1123C10.0822 12.8172 10.557 12.8137 10.8521 13.1044C11.1471 13.3951 11.1506 13.87 10.8599 14.1651L8.81522 16.2403L8.95228 16.3769C10.2471 17.6679 10.8945 18.3133 11.699 18.3133C11.8767 18.3133 12.0468 18.2818 12.2179 18.2188C12.8212 17.9966 13.437 17.3826 14.4457 16.3769ZM17.1925 9.5312C16.434 10.2874 15.2043 10.2874 14.4458 9.5312C13.6873 8.775 13.6873 7.54895 14.4458 6.79274C15.2043 6.03653 16.434 6.03653 17.1925 6.79274C17.951 7.54895 17.951 8.775 17.1925 9.5312Z" fill="#00A988"/>
</svg>
