<?xml version="1.0" encoding="UTF-8"?>
<!DOCTYPE svg PUBLIC "-//W3C//DTD SVG 1.1//EN" "http://www.w3.org/Graphics/SVG/1.1/DTD/svg11.dtd">
<svg xmlns="http://www.w3.org/2000/svg" version="1.1" width="4707px" height="1124px" style="shape-rendering:geometricPrecision; text-rendering:geometricPrecision; image-rendering:optimizeQuality; fill-rule:evenodd; clip-rule:evenodd" xmlns:xlink="http://www.w3.org/1999/xlink">
<g><path style="opacity:0.998" fill="#00aa88" d="M 171.5,0.5 C 431.5,0.333334 691.5,0.5 951.5,1C 1026.77,6.64571 1079.6,43.8124 1110,112.5C 1117.07,131.196 1121.07,150.53 1122,170.5C 1122.67,431.167 1122.67,691.833 1122,952.5C 1115.88,1027.24 1078.72,1079.74 1010.5,1110C 991.486,1117.2 971.819,1121.2 951.5,1122C 691.5,1122.67 431.5,1122.67 171.5,1122C 96.2281,1116.35 43.3947,1079.18 13,1010.5C 5.92739,991.804 1.92739,972.47 1,952.5C 0.0111004,687.486 0.344434,422.486 2,157.5C 11.6312,90.8976 46.7978,43.3976 107.5,15C 128.187,6.65822 149.521,1.82488 171.5,0.5 Z"/></g>
<g><path style="opacity:0.977" fill="#fe0000" d="M 4646.5,132.5 C 4676.37,131.896 4695.21,145.896 4703,174.5C 4705.82,206.052 4691.98,225.886 4661.5,234C 4633.71,236.696 4614.55,225.196 4604,199.5C 4597.48,163.852 4611.64,141.518 4646.5,132.5 Z"/></g>
<g><path style="opacity:0.996" fill="#00aa88" d="M 1579.5,300.5 C 1646.35,296.377 1707.68,312.543 1763.5,349C 1779.48,360.331 1793.81,373.498 1806.5,388.5C 1776.83,439.167 1747.17,489.833 1717.5,540.5C 1696.28,520.717 1671.61,506.884 1643.5,499C 1603.06,490.986 1571.22,503.819 1548,537.5C 1533.48,565.599 1530.48,594.932 1539,625.5C 1555.95,670.243 1588.45,690.576 1636.5,686.5C 1636.5,654.833 1636.5,623.167 1636.5,591.5C 1695.5,591.5 1754.5,591.5 1813.5,591.5C 1813.67,657.168 1813.5,722.834 1813,788.5C 1778.7,829.753 1735.54,857.586 1683.5,872C 1620.13,889.559 1557.79,886.559 1496.5,863C 1416.49,825.988 1363.99,765.155 1339,680.5C 1316.64,596.78 1325.31,516.446 1365,439.5C 1412.93,357.101 1484.43,310.768 1579.5,300.5 Z"/></g>
<g><path style="opacity:0.996" fill="#00aa88" d="M 3343.5,300.5 C 3413.08,296.222 3476.41,313.722 3533.5,353C 3547.47,363.307 3559.81,375.307 3570.5,389C 3541.13,439.566 3511.63,490.066 3482,540.5C 3460.82,520.369 3435.99,506.536 3407.5,499C 3367.71,491.141 3336.21,503.641 3313,536.5C 3294.86,571.007 3293.86,606.007 3310,641.5C 3330.47,675.485 3360.64,690.485 3400.5,686.5C 3400.5,654.833 3400.5,623.167 3400.5,591.5C 3459.83,591.5 3519.17,591.5 3578.5,591.5C 3578.67,656.834 3578.5,722.168 3578,787.5C 3541.82,831.281 3495.99,860.114 3440.5,874C 3364.82,893.076 3293.15,883.409 3225.5,845C 3164.92,806.052 3124.42,751.886 3104,682.5C 3080.75,597.71 3089.42,516.376 3130,438.5C 3177.78,356.673 3248.94,310.673 3343.5,300.5 Z"/></g>
<g><path style="opacity:0.995" fill="#00aa88" d="M 4347.5,300.5 C 4424.52,295.783 4491.86,318.617 4549.5,369C 4556.13,374.788 4561.8,381.288 4566.5,388.5C 4543.69,428.791 4520.35,468.791 4496.5,508.5C 4475.06,488.44 4450.06,474.607 4421.5,467C 4411.55,464.447 4401.55,464.114 4391.5,466C 4379.93,468.902 4373.26,476.235 4371.5,488C 4373.11,493.895 4376.45,498.561 4381.5,502C 4387.18,505.841 4393.18,509.174 4399.5,512C 4429.42,523.75 4458.42,537.417 4486.5,553C 4547.28,590.718 4575.11,645.551 4570,717.5C 4562.13,775.771 4533.3,820.271 4483.5,851C 4445.26,872.685 4404.1,883.518 4360,883.5C 4292.74,884.074 4231.24,865.907 4175.5,829C 4158.91,817.078 4144.24,803.078 4131.5,787C 4155.13,746.915 4178.63,706.749 4202,666.5C 4239.18,701.344 4283.35,718.511 4334.5,718C 4347.81,715.031 4354.98,706.864 4356,693.5C 4354.35,688.844 4351.52,685.011 4347.5,682C 4340.49,677.492 4333.15,673.492 4325.5,670C 4299.42,659.959 4274.08,648.292 4249.5,635C 4175.66,591.57 4146.49,527.403 4162,442.5C 4178.32,385.061 4213.82,344.228 4268.5,320C 4293.9,309.232 4320.24,302.732 4347.5,300.5 Z"/></g>
<g><path style="opacity:0.996" fill="#00aa88" d="M 3806.5,304.5 C 3836.5,304.333 3866.5,304.5 3896.5,305C 3942.57,306.275 3985.57,318.275 4025.5,341C 4075.09,374.375 4101.59,421.208 4105,481.5C 4109.49,531.866 4098.16,578.199 4071,620.5C 4041.07,659.736 4001.57,683.57 3952.5,692C 3915.28,696.644 3878.11,696.477 3841,691.5C 3840.5,751.499 3840.33,811.499 3840.5,871.5C 3776.5,871.5 3712.5,871.5 3648.5,871.5C 3648.5,685.167 3648.5,498.833 3648.5,312.5C 3701.25,308.7 3753.92,306.034 3806.5,304.5 Z M 3840.5,456.5 C 3851.84,456.333 3863.17,456.5 3874.5,457C 3903.39,463.242 3915.89,481.075 3912,510.5C 3906.75,529.079 3894.59,539.913 3875.5,543C 3863.84,543.5 3852.17,543.667 3840.5,543.5C 3840.5,514.5 3840.5,485.5 3840.5,456.5 Z"/></g>
<g><path style="opacity:0.993" fill="#00aa88" d="M 2352.5,312.5 C 2411.83,312.5 2471.17,312.5 2530.5,312.5C 2530.5,357.5 2530.5,402.5 2530.5,447.5C 2552.5,447.5 2574.5,447.5 2596.5,447.5C 2596.5,501.167 2596.5,554.833 2596.5,608.5C 2574.5,608.5 2552.5,608.5 2530.5,608.5C 2530.33,634.502 2530.5,660.502 2531,686.5C 2534.93,714.218 2550.76,726.051 2578.5,722C 2584.29,721.408 2589.96,720.241 2595.5,718.5C 2596.5,772.163 2596.83,825.829 2596.5,879.5C 2558.32,888.616 2519.99,889.449 2481.5,882C 2422.52,866.686 2384.02,829.853 2366,771.5C 2358.04,745.434 2353.7,718.767 2353,691.5C 2352.5,663.835 2352.33,636.169 2352.5,608.5C 2335.5,608.5 2318.5,608.5 2301.5,608.5C 2301.5,554.833 2301.5,501.167 2301.5,447.5C 2318.5,447.5 2335.5,447.5 2352.5,447.5C 2352.5,402.5 2352.5,357.5 2352.5,312.5 Z"/></g>
<g><path style="opacity:1" fill="#fefefe" d="M 339.5,324.5 C 394.977,321.617 445.977,335.117 492.5,365C 501.122,371.287 509.455,377.953 517.5,385C 522.594,389.421 526.927,394.421 530.5,400C 506.053,443.728 481.22,487.228 456,530.5C 433.228,507.699 405.728,495.032 373.5,492.5C 336.539,494.955 312.706,513.955 302,549.5C 295.579,576.382 299.245,601.715 313,625.5C 331.562,650.205 356.396,660.871 387.5,657.5C 387.5,630.167 387.5,602.833 387.5,575.5C 437.5,575.5 487.5,575.5 537.5,575.5C 537.667,631.501 537.5,687.501 537,743.5C 507.96,779.288 471.126,803.454 426.5,816C 358.21,835.434 293.877,826.767 233.5,790C 172.144,747.191 136.31,688.357 126,613.5C 116.253,539.486 133.253,472.486 177,412.5C 218.686,360.238 272.853,330.905 339.5,324.5 Z"/></g>
<g><path style="opacity:1" fill="#fefefe" d="M 783.5,324.5 C 841.685,321.458 894.685,336.292 942.5,369C 954.759,377.924 965.759,388.257 975.5,400C 950.712,443.745 925.546,487.245 900,530.5C 877.352,507.845 850.019,495.178 818,492.5C 778.294,495.531 753.96,516.531 745,555.5C 740.25,582.757 745.583,607.757 761,630.5C 779.614,651.986 803.114,660.986 831.5,657.5C 831.5,630.167 831.5,602.833 831.5,575.5C 881.5,575.5 931.5,575.5 981.5,575.5C 981.667,631.834 981.5,688.168 981,744.5C 949.893,781.491 910.726,805.991 863.5,818C 765.927,840.475 685.094,813.642 621,737.5C 580.16,680.493 562.826,616.826 569,546.5C 576.648,475.688 607.481,417.521 661.5,372C 697.594,344.468 738.261,328.634 783.5,324.5 Z"/></g>
<g><path style="opacity:0.994" fill="#00aa88" d="M 2039.5,435.5 C 2128.2,434.491 2195.03,471.824 2240,547.5C 2255.53,576.934 2264.53,608.268 2267,641.5C 2267.5,718.166 2267.67,794.833 2267.5,871.5C 2210.83,871.833 2154.16,871.5 2097.5,870.5C 2092.37,855.264 2087.53,839.931 2083,824.5C 2057.03,868.567 2018.53,887.733 1967.5,882C 1904.37,872.537 1867.2,836.37 1856,773.5C 1848.55,693.29 1884.05,644.123 1962.5,626C 1976.69,622.973 1991.02,620.973 2005.5,620C 2033.5,619.5 2061.5,619.333 2089.5,619.5C 2084.65,601.648 2073.65,589.148 2056.5,582C 2026.47,571.34 1998.8,575.674 1973.5,595C 1968.33,599.5 1963.17,604 1958,608.5C 1937.33,573.167 1916.67,537.833 1896,502.5C 1895.33,501.167 1895.33,499.833 1896,498.5C 1936.02,459.912 1983.85,438.912 2039.5,435.5 Z M 2085.5,687.5 C 2087.29,687.215 2088.95,687.548 2090.5,688.5C 2090.51,705.276 2087.01,721.276 2080,736.5C 2074.54,747.224 2065.87,753.224 2054,754.5C 2043.06,753.185 2036.06,747.185 2033,736.5C 2031.23,715.534 2040.07,701.034 2059.5,693C 2068.1,690.184 2076.77,688.35 2085.5,687.5 Z"/></g>
<g><path style="opacity:0.995" fill="#00aa88" d="M 2835.5,435.5 C 2927.18,437.909 2992.35,480.576 3031,563.5C 3048.13,607.233 3054.63,652.566 3050.5,699.5C 2972.17,699.5 2893.83,699.5 2815.5,699.5C 2820.6,717.106 2831.6,729.606 2848.5,737C 2878.51,747.498 2906.18,743.164 2931.5,724C 2936.67,719.5 2941.83,715 2947,710.5C 2968.04,746.749 2989.21,782.915 3010.5,819C 2967.79,860.92 2916.29,882.42 2856,883.5C 2764.79,880.588 2698.79,838.588 2658,757.5C 2629.24,687.751 2630.9,618.751 2663,550.5C 2699.89,481.302 2757.39,442.968 2835.5,435.5 Z M 2837.5,576.5 C 2857.1,575.388 2869.26,584.388 2874,603.5C 2875.81,610.046 2876.65,616.713 2876.5,623.5C 2854.83,623.5 2833.17,623.5 2811.5,623.5C 2810.52,607.939 2815.19,594.439 2825.5,583C 2829.2,580.098 2833.2,577.932 2837.5,576.5 Z"/></g>
</svg>
